<svg width="424" height="84" viewBox="0 0 424 84" fill="none" xmlns="http://www.w3.org/2000/svg">
<path d="M11.2338 87V88H11.9599L12.1847 87.3095L11.2338 87ZM17.312 68.3255V67.3255H16.5858L16.3611 68.016L17.312 68.3255ZM46.8633 68.3255L47.8142 68.016L47.5894 67.3255H46.8633V68.3255ZM52.9415 87L51.9906 87.3095L52.2153 88H52.9415V87ZM71.496 87V88H72.8985L72.4414 86.6741L71.496 87ZM43.2643 5.10407L44.2097 4.77817L43.9774 4.10407H43.2643V5.10407ZM20.9509 5.10407V4.10407H20.2382L20.0056 4.77776L20.9509 5.10407ZM-7.32079 87L-8.26605 86.6737L-8.72391 88H-7.32079V87ZM21.7107 54.8095L20.7597 54.5002L20.334 55.8095H21.7107V54.8095ZM31.7877 23.8186V22.8186H31.0613L30.8367 23.5093L31.7877 23.8186ZM32.4275 23.8186L33.3785 23.5093L33.1539 22.8186H32.4275V23.8186ZM42.5046 54.8095V55.8095H43.8813L43.4556 54.5002L42.5046 54.8095ZM12.1847 87.3095L18.2629 68.635L16.3611 68.016L10.2829 86.6905L12.1847 87.3095ZM17.312 69.3255H46.8633V67.3255H17.312V69.3255ZM45.9124 68.635L51.9906 87.3095L53.8924 86.6905L47.8142 68.016L45.9124 68.635ZM52.9415 88H71.496V86H52.9415V88ZM72.4414 86.6741L44.2097 4.77817L42.3189 5.42998L70.5506 87.3259L72.4414 86.6741ZM43.2643 4.10407H20.9509V6.10407H43.2643V4.10407ZM20.0056 4.77776L-8.26605 86.6737L-6.37553 87.3263L21.8962 5.43039L20.0056 4.77776ZM-7.32079 88H11.2338V86H-7.32079V88ZM22.6617 55.1187L32.7387 24.1278L30.8367 23.5093L20.7597 54.5002L22.6617 55.1187ZM31.7877 24.8186H32.4275V22.8186H31.7877V24.8186ZM31.4765 24.1278L41.5536 55.1187L43.4556 54.5002L33.3785 23.5093L31.4765 24.1278ZM42.5046 53.8095H21.7107V55.8095H42.5046V53.8095ZM112.854 25.5781H113.854V24.5781H112.854V25.5781ZM100.657 25.5781H99.6575V26.5781H100.657V25.5781ZM112.814 15.7409L112.506 16.6924L113.54 17.0268L113.788 15.9691L112.814 15.7409ZM115.813 2.94471L116.787 3.1729L117.001 2.25874L116.102 1.98738L115.813 2.94471ZM83.6225 25.5781V26.5781H84.6225V25.5781H83.6225ZM74.945 25.5781V24.5781H73.945V25.5781H74.945ZM74.945 38.3743H73.945V39.3743H74.945V38.3743ZM83.6225 38.3743H84.6225V37.3743H83.6225V38.3743ZM83.6225 87H82.6225V88H83.6225V87ZM100.657 87V88H101.657V87H100.657ZM100.657 38.3743V37.3743H99.6575V38.3743H100.657ZM112.854 38.3743V39.3743H113.854V38.3743H112.854ZM112.854 24.5781H100.657V26.5781H112.854V24.5781ZM101.657 25.5781V21.4593H99.6575V25.5781H101.657ZM101.657 21.4593C101.657 19.4858 102.061 18.1398 102.856 17.2797C103.637 16.4351 104.982 15.8612 107.336 15.8612V13.8612C104.69 13.8612 102.696 14.507 101.388 15.9217C100.094 17.3209 99.6575 19.274 99.6575 21.4593H101.657ZM107.336 15.8612C109.249 15.8612 111.224 16.2775 112.506 16.6924L113.122 14.7895C111.685 14.3246 109.5 13.8612 107.336 13.8612V15.8612ZM113.788 15.9691L116.787 3.1729L114.839 2.71652L111.84 15.5128L113.788 15.9691ZM116.102 1.98738C113.909 1.32528 109.132 0.265198 103.777 0.265198V2.2652C108.898 2.2652 113.478 3.28452 115.524 3.90204L116.102 1.98738ZM103.777 0.265198C97.8177 0.265198 92.5137 1.94673 88.6896 5.45707C84.8515 8.98015 82.6225 14.237 82.6225 21.1394H84.6225C84.6225 14.6857 86.6922 10.0054 90.042 6.93044C93.4058 3.84271 98.1788 2.2652 103.777 2.2652V0.265198ZM82.6225 21.1394V25.5781H84.6225V21.1394H82.6225ZM83.6225 24.5781H74.945V26.5781H83.6225V24.5781ZM73.945 25.5781V38.3743H75.945V25.5781H73.945ZM74.945 39.3743H83.6225V37.3743H74.945V39.3743ZM82.6225 38.3743V87H84.6225V38.3743H82.6225ZM83.6225 88H100.657V86H83.6225V88ZM101.657 87V38.3743H99.6575V87H101.657ZM100.657 39.3743H112.854V37.3743H100.657V39.3743ZM113.854 38.3743V25.5781H111.854V38.3743H113.854ZM156.291 25.5781H157.291V24.5781H156.291V25.5781ZM144.095 25.5781H143.095V26.5781H144.095V25.5781ZM156.251 15.7409L155.943 16.6924L156.977 17.0268L157.225 15.9691L156.251 15.7409ZM159.25 2.94471L160.224 3.1729L160.438 2.25874L159.539 1.98738L159.25 2.94471ZM127.06 25.5781V26.5781H128.06V25.5781H127.06ZM118.382 25.5781V24.5781H117.382V25.5781H118.382ZM118.382 38.3743H117.382V39.3743H118.382V38.3743ZM127.06 38.3743H128.06V37.3743H127.06V38.3743ZM127.06 87H126.06V88H127.06V87ZM144.095 87V88H145.095V87H144.095ZM144.095 38.3743V37.3743H143.095V38.3743H144.095ZM156.291 38.3743V39.3743H157.291V38.3743H156.291ZM156.291 24.5781H144.095V26.5781H156.291V24.5781ZM145.095 25.5781V21.4593H143.095V25.5781H145.095ZM145.095 21.4593C145.095 19.4858 145.498 18.1398 146.293 17.2797C147.074 16.4351 148.42 15.8612 150.773 15.8612V13.8612C148.127 13.8612 146.133 14.507 144.825 15.9217C143.531 17.3209 143.095 19.274 143.095 21.4593H145.095ZM150.773 15.8612C152.687 15.8612 154.661 16.2775 155.943 16.6924L156.559 14.7895C155.122 14.3246 152.938 13.8612 150.773 13.8612V15.8612ZM157.225 15.9691L160.224 3.1729L158.277 2.71652L155.277 15.5128L157.225 15.9691ZM159.539 1.98738C157.346 1.32528 152.569 0.265198 147.214 0.265198V2.2652C152.336 2.2652 156.916 3.28452 158.961 3.90204L159.539 1.98738ZM147.214 0.265198C141.255 0.265198 135.951 1.94673 132.127 5.45707C128.289 8.98015 126.06 14.237 126.06 21.1394H128.06C128.06 14.6857 130.129 10.0054 133.479 6.93044C136.843 3.84271 141.616 2.2652 147.214 2.2652V0.265198ZM126.06 21.1394V25.5781H128.06V21.1394H126.06ZM127.06 24.5781H118.382V26.5781H127.06V24.5781ZM117.382 25.5781V38.3743H119.382V25.5781H117.382ZM118.382 39.3743H127.06V37.3743H118.382V39.3743ZM126.06 38.3743V87H128.06V38.3743H126.06ZM127.06 88H144.095V86H127.06V88ZM145.095 87V38.3743H143.095V87H145.095ZM144.095 39.3743H156.291V37.3743H144.095V39.3743ZM157.291 38.3743V25.5781H155.291V38.3743H157.291ZM166.698 87H165.698V88H166.698V87ZM183.733 87V88H184.733V87H183.733ZM183.733 25.5781H184.733V24.5781H183.733V25.5781ZM166.698 25.5781V24.5781H165.698V25.5781H166.698ZM166.698 88H183.733V86H166.698V88ZM184.733 87V25.5781H182.733V87H184.733ZM183.733 24.5781H166.698V26.5781H183.733V24.5781ZM165.698 25.5781V87H167.698V25.5781H165.698ZM175.256 18.6604C180.821 18.6604 185.493 14.3967 185.493 9.02292H183.493C183.493 13.1663 179.847 16.6604 175.256 16.6604V18.6604ZM185.493 9.02292C185.493 3.68623 180.818 -0.574554 175.256 -0.574554V1.42545C179.85 1.42545 183.493 4.92239 183.493 9.02292H185.493ZM175.256 -0.574554C169.73 -0.574554 165.058 3.68894 165.058 9.02292H167.058C167.058 4.91968 170.704 1.42545 175.256 1.42545V-0.574554ZM165.058 9.02292C165.058 14.394 169.727 18.6604 175.256 18.6604V16.6604C170.707 16.6604 167.058 13.1691 167.058 9.02292H165.058ZM214.414 5.10407H215.414V4.10407H214.414V5.10407ZM197.379 5.10407V4.10407H196.379V5.10407H197.379ZM197.379 87H196.379V88H197.379V87ZM214.414 87V88H215.414V87H214.414ZM214.414 4.10407H197.379V6.10407H214.414V4.10407ZM196.379 5.10407V87H198.379V5.10407H196.379ZM197.379 88H214.414V86H197.379V88ZM215.414 87V5.10407H213.414V87H215.414ZM228.06 87H227.06V88H228.06V87ZM245.095 87V88H246.095V87H245.095ZM245.095 25.5781H246.095V24.5781H245.095V25.5781ZM228.06 25.5781V24.5781H227.06V25.5781H228.06ZM228.06 88H245.095V86H228.06V88ZM246.095 87V25.5781H244.095V87H246.095ZM245.095 24.5781H228.06V26.5781H245.095V24.5781ZM227.06 25.5781V87H229.06V25.5781H227.06ZM236.617 18.6604C242.183 18.6604 246.855 14.3967 246.855 9.02292H244.855C244.855 13.1663 241.209 16.6604 236.617 16.6604V18.6604ZM246.855 9.02292C246.855 3.68623 242.18 -0.574554 236.617 -0.574554V1.42545C241.212 1.42545 244.855 4.92239 244.855 9.02292H246.855ZM236.617 -0.574554C231.092 -0.574554 226.42 3.68894 226.42 9.02292H228.42C228.42 4.91968 232.066 1.42545 236.617 1.42545V-0.574554ZM226.42 9.02292C226.42 14.394 231.089 18.6604 236.617 18.6604V16.6604C232.069 16.6604 228.42 13.1691 228.42 9.02292H226.42ZM294.211 78.4825V77.4825H293.606L293.325 78.018L294.211 78.4825ZM294.69 78.4825H295.69V77.4825H294.69V78.4825ZM294.69 87H293.69V88H294.69V87ZM310.846 87V88H311.846V87H310.846ZM258.021 43.0129L257.043 42.8067L256.809 43.9177L257.94 44.0097L258.021 43.0129ZM273.777 44.2926L273.696 45.2893L274.514 45.3557L274.738 44.566L273.777 44.2926ZM278.935 50.9306L279.027 51.9264L279.032 51.9259L278.935 50.9306ZM282.094 61.2876L281.956 60.2972L281.955 60.2972L282.094 61.2876ZM293.931 58.5284H294.931V56.6599L293.376 57.6963L293.931 58.5284ZM276.256 89.1597C285.667 89.1597 291.907 85.0273 295.096 78.947L293.325 78.018C290.516 83.3744 285 87.1597 276.256 87.1597V89.1597ZM294.211 79.4825H294.69V77.4825H294.211V79.4825ZM293.69 78.4825V87H295.69V78.4825H293.69ZM294.69 88H310.846V86H294.69V88ZM311.846 87V45.5722H309.846V87H311.846ZM311.846 45.5722C311.846 37.9262 308.586 32.4229 303.512 28.8679C298.482 25.3441 291.741 23.7783 284.773 23.7783V25.7783C291.482 25.7783 297.776 27.2916 302.364 30.5058C306.907 33.6888 309.846 38.5825 309.846 45.5722H311.846ZM284.773 23.7783C277.26 23.7783 270.951 25.5751 266.194 28.8752C261.425 32.1833 258.274 36.9648 257.043 42.8067L259 43.2191C260.128 37.8643 262.995 33.5285 267.334 30.5185C271.684 27.5005 277.571 25.7783 284.773 25.7783V23.7783ZM257.94 44.0097L273.696 45.2893L273.858 43.2958L258.102 42.0162L257.94 44.0097ZM274.738 44.566C275.758 40.9818 278.951 38.2146 284.693 38.2146V36.2146C278.199 36.2146 274.115 39.4457 272.815 44.0191L274.738 44.566ZM284.693 38.2146C287.436 38.2146 289.451 38.9052 290.768 40.0567C292.066 41.1915 292.811 42.8838 292.811 45.1723H294.811C294.811 42.4223 293.896 40.1357 292.085 38.5513C290.292 36.9836 287.749 36.2146 284.693 36.2146V38.2146ZM292.811 45.1723V45.4122H294.811V45.1723H292.811ZM292.811 45.4122C292.811 46.2086 292.607 46.7273 292.245 47.1288C291.855 47.5614 291.19 47.9598 290.075 48.3127C287.816 49.0279 284.225 49.4107 278.838 49.9353L279.032 51.9259C284.322 51.4108 288.169 51.0138 290.678 50.2195C291.948 49.8176 293 49.2788 293.731 48.468C294.49 47.6261 294.811 46.5953 294.811 45.4122H292.811ZM278.843 49.9348C272.713 50.4994 266.74 51.8185 262.279 54.8359C257.746 57.9025 254.862 62.6667 254.862 69.845H256.862C256.862 63.3074 259.436 59.1742 263.4 56.4925C267.437 53.7616 273 52.4815 279.027 51.9264L278.843 49.9348ZM254.862 69.845C254.862 76.1812 257.135 81.0543 261.021 84.326C264.884 87.5776 270.234 89.1597 276.256 89.1597V87.1597C270.561 87.1597 265.714 85.6626 262.309 82.796C258.928 79.9495 256.862 75.6653 256.862 69.845H254.862ZM281.134 75.4031C278.654 75.4031 276.639 74.8236 275.271 73.7983C273.938 72.8 273.137 71.3223 273.137 69.2852H271.137C271.137 71.9267 272.215 74.008 274.072 75.3989C275.892 76.763 278.376 77.4031 281.134 77.4031V75.4031ZM273.137 69.2852C273.137 67.2126 273.969 65.7164 275.463 64.604C277.009 63.4536 279.307 62.6875 282.233 62.2779L281.955 60.2972C278.883 60.7274 276.202 61.5608 274.269 62.9996C272.285 64.4765 271.137 66.5592 271.137 69.2852H273.137ZM282.233 62.2779C284.09 62.0183 286.568 61.6646 288.841 61.2029C289.978 60.972 291.08 60.7108 292.038 60.4156C292.978 60.126 293.853 59.7823 294.485 59.3604L293.376 57.6963C292.989 57.9543 292.339 58.2303 291.449 58.5043C290.578 58.7728 289.546 59.0189 288.443 59.2429C286.238 59.6908 283.817 60.037 281.956 60.2972L282.233 62.2779ZM292.931 58.5284V65.0465H294.931V58.5284H292.931ZM292.931 65.0465C292.931 70.8343 288.163 75.4031 281.134 75.4031V77.4031C289.061 77.4031 294.931 72.1349 294.931 65.0465H292.931ZM356.732 25.5781H357.732V24.5781H356.732V25.5781ZM345.176 25.5781H344.176V26.5781H345.176V25.5781ZM345.176 10.8624H346.176V9.86238H345.176V10.8624ZM328.141 10.8624V9.86238H327.141V10.8624H328.141ZM328.141 25.5781V26.5781H329.141V25.5781H328.141ZM319.743 25.5781V24.5781H318.743V25.5781H319.743ZM319.743 38.3743H318.743V39.3743H319.743V38.3743ZM328.141 38.3743H329.141V37.3743H328.141V38.3743ZM328.141 70.3649L329.141 70.3715V70.3649H328.141ZM348.615 87.8398L348.578 86.8404L348.573 86.8406L348.615 87.8398ZM357.852 86.2402L358.161 87.1911L359.016 86.9128L358.83 86.0334L357.852 86.2402ZM355.173 73.5639L356.151 73.3572L355.948 72.3982L354.986 72.5816L355.173 73.5639ZM345.176 38.3743V37.3743H344.176V38.3743H345.176ZM356.732 38.3743V39.3743H357.732V38.3743H356.732ZM356.732 24.5781H345.176V26.5781H356.732V24.5781ZM346.176 25.5781V10.8624H344.176V25.5781H346.176ZM345.176 9.86238H328.141V11.8624H345.176V9.86238ZM327.141 10.8624V25.5781H329.141V10.8624H327.141ZM328.141 24.5781H319.743V26.5781H328.141V24.5781ZM318.743 25.5781V38.3743H320.743V25.5781H318.743ZM319.743 39.3743H328.141V37.3743H319.743V39.3743ZM327.141 38.3743V70.3649H329.141V38.3743H327.141ZM327.141 70.3582C327.099 76.6194 329.22 81.4299 333.081 84.5852C336.915 87.7185 342.324 89.1053 348.657 88.8389L348.573 86.8406C342.549 87.0941 337.681 85.7616 334.347 83.0366C331.04 80.3336 329.102 76.1469 329.141 70.3715L327.141 70.3582ZM348.651 88.8391C353.17 88.6748 356.385 87.7696 358.161 87.1911L357.542 85.2894C355.88 85.8305 352.856 86.6849 348.578 86.8404L348.651 88.8391ZM358.83 86.0334L356.151 73.3572L354.194 73.7707L356.873 86.447L358.83 86.0334ZM354.986 72.5816C354.096 72.7511 352.414 73.1238 350.934 73.1238V75.1238C352.653 75.1238 354.57 74.6967 355.36 74.5463L354.986 72.5816ZM350.934 73.1238C349.328 73.1238 348.19 72.8155 347.448 72.1496C346.726 71.503 346.176 70.3334 346.176 68.1255H344.176C344.176 70.6363 344.804 72.4658 346.113 73.6387C347.399 74.7922 349.141 75.1238 350.934 75.1238V73.1238ZM346.176 68.1255V38.3743H344.176V68.1255H346.176ZM345.176 39.3743H356.732V37.3743H345.176V39.3743ZM357.732 38.3743V25.5781H355.732V38.3743H357.732ZM422.993 69.4052L423.971 69.6112L424.209 68.4832L423.059 68.4073L422.993 69.4052ZM407.237 68.3655L407.303 67.3676L406.557 67.3184L406.299 68.0205L407.237 68.3655ZM381.525 60.6477V59.6477H380.525V60.6477H381.525ZM423.353 60.6477V61.6477H424.353V60.6477H423.353ZM381.525 50.0909L380.526 50.0395L380.472 51.0909H381.525V50.0909ZM407.317 50.0909V51.0909H408.323L408.317 50.0854L407.317 50.0909ZM395.161 89.1996C410.687 89.1996 421.448 81.5967 423.971 69.6112L422.014 69.1992C419.739 80.0069 410.026 87.1996 395.161 87.1996V89.1996ZM423.059 68.4073L407.303 67.3676L407.171 69.3633L422.927 70.403L423.059 68.4073ZM406.299 68.0205C404.764 72.1958 400.83 74.4834 395.441 74.4834V76.4834C401.408 76.4834 406.271 73.8924 408.176 68.7104L406.299 68.0205ZM395.441 74.4834C391.41 74.4834 388.211 73.1552 386.016 70.8326C383.814 68.5039 382.525 65.0716 382.525 60.6877H380.525C380.525 65.4612 381.935 69.4267 384.562 72.2065C387.195 74.9924 390.954 76.4834 395.441 76.4834V74.4834ZM382.525 60.6877V60.6477H380.525V60.6877H382.525ZM381.525 61.6477H423.353V59.6477H381.525V61.6477ZM424.353 60.6477V55.9691H422.353V60.6477H424.353ZM424.353 55.9691C424.353 45.3268 421.127 37.2534 415.712 31.8389C410.301 26.428 402.81 23.7783 394.481 23.7783V25.7783C402.387 25.7783 409.332 28.287 414.298 33.2531C419.26 38.2156 422.353 45.7376 422.353 55.9691H424.353ZM394.481 23.7783C385.196 23.7783 377.472 27.0821 372.075 32.8847C366.685 38.68 363.69 46.8864 363.69 56.5689H365.69C365.69 47.2971 368.553 39.6081 373.54 34.2468C378.52 28.8926 385.692 25.7783 394.481 25.7783V23.7783ZM363.69 56.5689C363.69 66.5026 366.64 74.6798 372.111 80.3796C377.586 86.0844 385.484 89.1996 395.161 89.1996V87.1996C385.923 87.1996 378.585 84.2367 373.554 78.9947C368.518 73.7477 365.69 66.1096 365.69 56.5689H363.69ZM382.524 50.1422C382.858 43.6464 387.765 38.4946 394.761 38.4946V36.4946C386.642 36.4946 380.912 42.5394 380.526 50.0395L382.524 50.1422ZM394.761 38.4946C398.214 38.4946 401.08 39.7219 403.087 41.7516C405.096 43.7831 406.299 46.6739 406.317 50.0963L408.317 50.0854C408.296 46.19 406.919 42.7826 404.509 40.3454C402.098 37.9064 398.706 36.4946 394.761 36.4946V38.4946ZM407.317 49.0909H381.525V51.0909H407.317V49.0909Z" fill="#393F66"/>
</svg>
