<svg width="216" height="81" viewBox="0 0 216 81" fill="none" xmlns="http://www.w3.org/2000/svg">
<path d="M41.5448 25.6572L40.5498 25.756L40.6393 26.6572H41.5448V25.6572ZM58.14 25.6572V26.6572H59.1565L59.1398 25.6407L58.14 25.6572ZM-3.36195 25.7771L-2.36192 25.7804L-2.36197 25.7717L-3.36195 25.7771ZM18.9515 48.0906L19.1951 47.1206L19.1848 47.1181L18.9515 48.0906ZM27.8689 50.3299L27.6253 51.2998L27.6335 51.3018L27.8689 50.3299ZM41.7848 60.5669L42.7849 60.5736L42.7848 60.5596L41.7848 60.5669ZM11.2338 58.2876L12.2314 58.2194L12.1678 57.2876H11.2338V58.2876ZM-5.52132 58.2876V57.2876H-6.54646L-6.52101 58.3124L-5.52132 58.2876ZM59.2596 60.6069L60.2597 60.6095L60.2596 60.6039L59.2596 60.6069ZM34.7069 36.534L34.4743 37.5066L34.4876 37.5096L34.7069 36.534ZM27.349 34.7745L27.5816 33.8019L27.5735 33.8L27.349 34.7745ZM14.3928 24.6175L15.3926 24.6379L15.3928 24.6277V24.6175H14.3928ZM41.5448 26.6572H58.14V24.6572H41.5448V26.6572ZM59.1398 25.6407C59.0151 18.0516 55.8241 11.6053 50.2857 7.07346C44.7618 2.55341 36.9646 -0.0155983 27.6689 -0.0155983V1.9844C36.6079 1.9844 43.9262 4.45392 49.0192 8.62131C54.0978 12.7769 57.0249 18.667 57.1401 25.6736L59.1398 25.6407ZM27.6689 -0.0155983C18.5162 -0.0155983 10.5071 2.51157 4.77275 7.01601C-0.979626 11.5346 -4.40368 18.0187 -4.36194 25.7825L-2.36197 25.7717C-2.4002 18.6599 0.713825 12.7476 6.0082 8.58879C11.3206 4.41578 18.8669 1.9844 27.6689 1.9844V-0.0155983ZM-4.36195 25.7738C-4.38282 32.0786 -2.15704 37.0939 1.90327 40.9436C5.9326 44.7638 11.7085 47.3814 18.7182 49.063L19.1848 47.1181C12.3586 45.4807 6.95773 42.9798 3.27933 39.4922C-0.368102 36.034 -2.38107 31.552 -2.36196 25.7804L-4.36195 25.7738ZM18.7079 49.0604L27.6253 51.2998L28.1124 49.36L19.195 47.1207L18.7079 49.0604ZM27.6335 51.3018C32.0778 52.378 35.3947 53.5249 37.5947 55.0165C39.727 56.4621 40.7676 58.1952 40.7848 60.5741L42.7848 60.5596C42.762 57.4202 41.3034 55.1145 38.717 53.3611C36.1984 51.6535 32.5773 50.4412 28.1042 49.358L27.6335 51.3018ZM40.7848 60.5602C40.7672 63.2054 39.5219 65.4342 37.2369 67.0359C34.9267 68.6554 31.5265 69.6439 27.269 69.6439V71.6439C31.809 71.6439 35.6467 70.5931 38.385 68.6736C41.1485 66.7363 42.7624 63.9266 42.7848 60.5736L40.7848 60.5602ZM27.269 69.6439C22.9112 69.6439 19.2714 68.6353 16.6788 66.7335C14.1152 64.8529 12.4924 62.0409 12.2314 58.2194L10.2361 58.3557C10.5349 62.7318 12.4311 66.098 15.4958 68.3462C18.5316 70.5731 22.6295 71.6439 27.269 71.6439V69.6439ZM11.2338 57.2876H-5.52132V59.2876H11.2338V57.2876ZM-6.52101 58.3124C-6.29473 67.425 -2.90644 74.4392 3.06658 79.1517C9.00908 83.8402 17.3938 86.1597 27.469 86.1597V84.1597C17.67 84.1597 9.77951 81.9005 4.30538 77.5816C-1.13825 73.2867 -4.30803 66.8649 -4.52163 58.2627L-6.52101 58.3124ZM27.469 86.1597C37.6122 86.1597 45.7918 83.7366 51.4638 79.2939C57.1633 74.8295 60.2389 68.3943 60.2596 60.6095L58.2596 60.6042C58.2404 67.815 55.4177 73.6563 50.2305 77.7194C45.0156 81.8041 37.3199 84.1597 27.469 84.1597V86.1597ZM60.2596 60.6039C60.2388 53.4999 57.5366 48.0134 52.9752 43.9129C48.4462 39.8415 42.1345 37.1781 34.9261 35.5583L34.4876 37.5096C41.515 39.0888 47.4597 41.644 51.6381 45.4002C55.7842 49.1274 58.2405 54.0779 58.2596 60.6098L60.2596 60.6039ZM34.9394 35.5614L27.5816 33.8019L27.1164 35.747L34.4743 37.5065L34.9394 35.5614ZM27.5735 33.8C24.0427 32.9867 20.9229 31.9496 18.7171 30.4572C16.5569 28.9958 15.3413 27.1546 15.3926 24.6379L13.393 24.5971C13.3244 27.9586 15.0279 30.3761 17.5964 32.1138C20.1191 33.8205 23.5374 34.9227 27.1246 35.749L27.5735 33.8ZM15.3928 24.6175C15.3928 22.3075 16.4019 20.314 18.3819 18.8667C20.3891 17.3996 23.4492 16.4601 27.549 16.4601V14.4601C23.1712 14.4601 19.6532 15.4601 17.2017 17.2521C14.7231 19.0638 13.3928 21.6489 13.3928 24.6175H15.3928ZM27.549 16.4601C31.5475 16.4601 34.6579 17.369 36.8206 18.9514C38.9592 20.5162 40.2559 22.7991 40.5498 25.756L42.5399 25.5583C42.194 22.0771 40.6315 19.2615 38.0015 17.3373C35.3957 15.4307 31.828 14.4601 27.549 14.4601V16.4601ZM70.9062 84H69.9062V85H70.9062V84ZM126.25 84V85H127.25V84H126.25ZM126.25 69.7242H127.25V68.7242H126.25V69.7242ZM88.2211 69.7242H87.2211V70.7242H88.2211V69.7242ZM88.2211 50.1699V49.1699H87.2211V50.1699H88.2211ZM123.251 50.1699V51.1699H124.251V50.1699H123.251ZM123.251 35.8941H124.251V34.8941H123.251V35.8941ZM88.2211 35.8941H87.2211V36.8941H88.2211V35.8941ZM88.2211 16.3799V15.3799H87.2211V16.3799H88.2211ZM126.09 16.3799V17.3799H127.09V16.3799H126.09ZM126.09 2.10407H127.09V1.10407H126.09V2.10407ZM70.9062 2.10407V1.10407H69.9062V2.10407H70.9062ZM70.9062 85H126.25V83H70.9062V85ZM127.25 84V69.7242H125.25V84H127.25ZM126.25 68.7242H88.2211V70.7242H126.25V68.7242ZM89.2211 69.7242V50.1699H87.2211V69.7242H89.2211ZM88.2211 51.1699H123.251V49.1699H88.2211V51.1699ZM124.251 50.1699V35.8941H122.251V50.1699H124.251ZM123.251 34.8941H88.2211V36.8941H123.251V34.8941ZM89.2211 35.8941V16.3799H87.2211V35.8941H89.2211ZM88.2211 17.3799H126.09V15.3799H88.2211V17.3799ZM127.09 16.3799V2.10407H125.09V16.3799H127.09ZM126.09 1.10407H70.9062V3.10407H126.09V1.10407ZM69.9062 2.10407V84H71.9062V2.10407H69.9062ZM216.114 43.052C216.114 29.4459 211.886 18.6651 204.804 11.2791C197.721 3.8924 187.862 -0.0155983 176.765 -0.0155983V1.9844C187.382 1.9844 196.697 5.71416 203.36 12.6633C210.024 19.6131 214.114 29.866 214.114 43.052H216.114ZM176.765 -0.0155983C165.609 -0.0155983 155.749 3.89172 148.681 11.2799C141.613 18.6668 137.416 29.4479 137.416 43.052H139.416C139.416 29.864 143.477 19.6113 150.126 12.6625C156.773 5.71485 166.088 1.9844 176.765 1.9844V-0.0155983ZM137.416 43.052C137.416 56.5972 141.614 67.3774 148.68 74.7785C155.747 82.1809 165.607 86.1197 176.765 86.1197V84.1197C166.09 84.1197 156.775 80.3607 150.126 73.3974C143.477 66.4326 139.416 56.1791 139.416 43.052H137.416ZM176.765 86.1197C187.862 86.1197 197.721 82.2117 204.804 74.825C211.886 67.439 216.114 56.6581 216.114 43.052H214.114C214.114 56.2381 210.024 66.491 203.36 73.4408C196.697 80.3899 187.382 84.1197 176.765 84.1197V86.1197ZM196.559 43.052C196.559 51.5849 194.533 58.0244 191.091 62.31C187.671 66.5687 182.772 68.8042 176.765 68.8042V70.8042C183.315 70.8042 188.813 68.341 192.65 63.5624C196.466 58.8107 198.559 51.8741 198.559 43.052H196.559ZM176.765 68.8042C170.738 68.8042 165.839 66.5683 162.425 62.3105C158.988 58.0253 156.971 51.586 156.971 43.052H154.971C154.971 51.873 157.053 58.8097 160.864 63.5618C164.698 68.3415 170.196 70.8042 176.765 70.8042V68.8042ZM156.971 43.052C156.971 34.5181 158.988 28.0787 162.425 23.7935C165.839 19.5358 170.738 17.2999 176.765 17.2999V15.2999C170.196 15.2999 164.698 17.7626 160.864 22.5422C157.053 27.2944 154.971 34.2311 154.971 43.052H156.971ZM176.765 17.2999C182.772 17.2999 187.671 19.5353 191.091 23.7941C194.533 28.0797 196.559 34.5192 196.559 43.052H198.559C198.559 34.23 196.466 27.2934 192.65 22.5417C188.813 17.7631 183.315 15.2999 176.765 15.2999V17.2999Z" fill="#E9757A"/>
</svg>
